<svg xmlns="http://www.w3.org/2000/svg" width="500" height="500" viewBox="0 0 500 500">
  <!-- پس زمینه -->
  <rect width="500" height="500" fill="#004d40"/>
  
  <!-- الگوی هندسی اسلامی -->
  <defs>
    <pattern id="islamic-pattern" x="0" y="0" width="100" height="100" patternUnits="userSpaceOnUse">
      <!-- المان‌های هندسی مثل ستاره‌های 8 ضلعی -->
      <path d="M50 0L61.8 20.7L84.1 24.1L67 40.3L71.8 62.3L50 52L28.2 62.3L33 40.3L15.9 24.1L38.2 20.7L50 0Z" fill="none" stroke="#e8b835" stroke-width="1.5" opacity="0.8"/>
      
      <path d="M0 50L20.7 38.2L24.1 15.9L40.3 33L62.3 28.2L52 50L62.3 71.8L40.3 67L24.1 84.1L20.7 61.8L0 50Z" fill="none" stroke="#e8b835" stroke-width="1.5" opacity="0.8"/>
      
      <path d="M100 50L79.3 38.2L75.9 15.9L59.7 33L37.7 28.2L48 50L37.7 71.8L59.7 67L75.9 84.1L79.3 61.8L100 50Z" fill="none" stroke="#e8b835" stroke-width="1.5" opacity="0.8"/>
      
      <path d="M50 100L38.2 79.3L15.9 75.9L33 59.7L28.2 37.7L50 48L71.8 37.7L67 59.7L84.1 75.9L61.8 79.3L50 100Z" fill="none" stroke="#e8b835" stroke-width="1.5" opacity="0.8"/>
      
      <!-- دایره‌ها و خطوط متقاطع -->
      <circle cx="50" cy="50" r="30" fill="none" stroke="#e8b835" stroke-width="1" opacity="0.5"/>
      <circle cx="50" cy="50" r="20" fill="none" stroke="#e8b835" stroke-width="1" opacity="0.5"/>
      <circle cx="50" cy="50" r="10" fill="none" stroke="#e8b835" stroke-width="1" opacity="0.5"/>
      
      <!-- خطوط متقاطع -->
      <line x1="50" y1="0" x2="50" y2="100" stroke="#e8b835" stroke-width="0.5" opacity="0.3"/>
      <line x1="0" y1="50" x2="100" y2="50" stroke="#e8b835" stroke-width="0.5" opacity="0.3"/>
      <line x1="0" y1="0" x2="100" y2="100" stroke="#e8b835" stroke-width="0.5" opacity="0.3"/>
      <line x1="100" y1="0" x2="0" y2="100" stroke="#e8b835" stroke-width="0.5" opacity="0.3"/>
    </pattern>
  </defs>
  
  <!-- پس‌زمینه با الگوی اسلامی -->
  <rect width="500" height="500" fill="url(#islamic-pattern)"/>
  
  <!-- افزودن یک لایه شفاف روی تصویر -->
  <rect width="500" height="500" fill="#004d40" opacity="0.3"/>
  
  <!-- افزودن تزیینات حاشیه‌ای -->
  <rect x="10" y="10" width="480" height="480" fill="none" stroke="#e8b835" stroke-width="2" opacity="0.7"/>
  <rect x="20" y="20" width="460" height="460" fill="none" stroke="#e8b835" stroke-width="1" opacity="0.5"/>
  
  <!-- گل‌های اسلامی در گوشه‌ها -->
  <g transform="translate(30,30)" opacity="0.8">
    <path d="M0,0 Q10,10 0,20 Q-10,10 0,0 Z" fill="#e8b835"/>
    <path d="M0,0 Q10,-10 20,0 Q10,10 0,0 Z" fill="#e8b835"/>
    <path d="M0,0 Q-10,-10 0,-20 Q10,-10 0,0 Z" fill="#e8b835"/>
    <path d="M0,0 Q-10,10 -20,0 Q-10,-10 0,0 Z" fill="#e8b835"/>
  </g>
  
  <g transform="translate(470,30)" opacity="0.8">
    <path d="M0,0 Q10,10 0,20 Q-10,10 0,0 Z" fill="#e8b835"/>
    <path d="M0,0 Q10,-10 20,0 Q10,10 0,0 Z" fill="#e8b835"/>
    <path d="M0,0 Q-10,-10 0,-20 Q10,-10 0,0 Z" fill="#e8b835"/>
    <path d="M0,0 Q-10,10 -20,0 Q-10,-10 0,0 Z" fill="#e8b835"/>
  </g>
  
  <g transform="translate(30,470)" opacity="0.8">
    <path d="M0,0 Q10,10 0,20 Q-10,10 0,0 Z" fill="#e8b835"/>
    <path d="M0,0 Q10,-10 20,0 Q10,10 0,0 Z" fill="#e8b835"/>
    <path d="M0,0 Q-10,-10 0,-20 Q10,-10 0,0 Z" fill="#e8b835"/>
    <path d="M0,0 Q-10,10 -20,0 Q-10,-10 0,0 Z" fill="#e8b835"/>
  </g>
  
  <g transform="translate(470,470)" opacity="0.8">
    <path d="M0,0 Q10,10 0,20 Q-10,10 0,0 Z" fill="#e8b835"/>
    <path d="M0,0 Q10,-10 20,0 Q10,10 0,0 Z" fill="#e8b835"/>
    <path d="M0,0 Q-10,-10 0,-20 Q10,-10 0,0 Z" fill="#e8b835"/>
    <path d="M0,0 Q-10,10 -20,0 Q-10,-10 0,0 Z" fill="#e8b835"/>
  </g>
</svg>